<svg height="3630" width="720" xmlns="http://www.w3.org/2000/svg">
<rect height="3630" fill="#555" width="720"></rect>
<text fill="#7f7" font-family="Courier New" font-size="12" xml:space="preserve">
<tspan x="10" y="26">23 megabytes installed</tspan>
<tspan x="10" y="42"></tspan>
<tspan x="10" y="58">node_modules</tspan>
<tspan x="10" y="74">└─┬ gulp-phpunit@0.22.2 </tspan>
<tspan x="10" y="90">  ├─┬ chalk@1.1.3 </tspan>
<tspan x="10" y="106">  │ ├── ansi-styles@2.2.1 </tspan>
<tspan x="10" y="122">  │ ├── escape-string-regexp@1.0.5 </tspan>
<tspan x="10" y="138">  │ ├─┬ has-ansi@2.0.0 </tspan>
<tspan x="10" y="154">  │ │ └── ansi-regex@2.1.1 </tspan>
<tspan x="10" y="170">  │ ├── strip-ansi@3.0.1 </tspan>
<tspan x="10" y="186">  │ └── supports-color@2.0.0 </tspan>
<tspan x="10" y="202">  ├─┬ gulp-messenger@0.26.0 </tspan>
<tspan x="10" y="218">  │ ├─┬ ansi-styles@3.0.0 </tspan>
<tspan x="10" y="234">  │ │ └─┬ color-convert@1.9.0 </tspan>
<tspan x="10" y="250">  │ │   └── color-name@1.1.2 </tspan>
<tspan x="10" y="266">  │ ├── bowser@1.6.0 </tspan>
<tspan x="10" y="282">  │ ├─┬ defaults@1.0.3 </tspan>
<tspan x="10" y="298">  │ │ └── clone@1.0.2 </tspan>
<tspan x="10" y="314">  │ ├── detect-node@2.0.3 </tspan>
<tspan x="10" y="330">  │ ├── easy-table@1.0.0 </tspan>
<tspan x="10" y="346">  │ ├─┬ gulp@3.9.1 </tspan>
<tspan x="10" y="362">  │ │ ├── archy@1.0.0 </tspan>
<tspan x="10" y="378">  │ │ ├── deprecated@0.0.1 </tspan>
<tspan x="10" y="394">  │ │ ├─┬ liftoff@2.3.0 </tspan>
<tspan x="10" y="410">  │ │ │ ├── extend@3.0.0 </tspan>
<tspan x="10" y="426">  │ │ │ ├─┬ findup-sync@0.4.3 </tspan>
<tspan x="10" y="442">  │ │ │ │ ├─┬ detect-file@0.1.0 </tspan>
<tspan x="10" y="458">  │ │ │ │ │ └── fs-exists-sync@0.1.0 </tspan>
<tspan x="10" y="474">  │ │ │ │ ├─┬ is-glob@2.0.1 </tspan>
<tspan x="10" y="490">  │ │ │ │ │ └── is-extglob@1.0.0 </tspan>
<tspan x="10" y="506">  │ │ │ │ ├─┬ micromatch@2.3.11 </tspan>
<tspan x="10" y="522">  │ │ │ │ │ ├─┬ arr-diff@2.0.0 </tspan>
<tspan x="10" y="538">  │ │ │ │ │ │ └── arr-flatten@1.0.3 </tspan>
<tspan x="10" y="554">  │ │ │ │ │ ├── array-unique@0.2.1 </tspan>
<tspan x="10" y="570">  │ │ │ │ │ ├─┬ braces@1.8.5 </tspan>
<tspan x="10" y="586">  │ │ │ │ │ │ ├─┬ expand-range@1.8.2 </tspan>
<tspan x="10" y="602">  │ │ │ │ │ │ │ └─┬ fill-range@2.2.3 </tspan>
<tspan x="10" y="618">  │ │ │ │ │ │ │   ├── is-number@2.1.0 </tspan>
<tspan x="10" y="634">  │ │ │ │ │ │ │   ├─┬ isobject@2.1.0 </tspan>
<tspan x="10" y="650">  │ │ │ │ │ │ │   │ └── isarray@1.0.0 </tspan>
<tspan x="10" y="666">  │ │ │ │ │ │ │   ├── randomatic@1.1.6 </tspan>
<tspan x="10" y="682">  │ │ │ │ │ │ │   └── repeat-string@1.6.1 </tspan>
<tspan x="10" y="698">  │ │ │ │ │ │ ├── preserve@0.2.0 </tspan>
<tspan x="10" y="714">  │ │ │ │ │ │ └── repeat-element@1.1.2 </tspan>
<tspan x="10" y="730">  │ │ │ │ │ ├─┬ expand-brackets@0.1.5 </tspan>
<tspan x="10" y="746">  │ │ │ │ │ │ └── is-posix-bracket@0.1.1 </tspan>
<tspan x="10" y="762">  │ │ │ │ │ ├── extglob@0.3.2 </tspan>
<tspan x="10" y="778">  │ │ │ │ │ ├── filename-regex@2.0.0 </tspan>
<tspan x="10" y="794">  │ │ │ │ │ ├─┬ kind-of@3.1.0 </tspan>
<tspan x="10" y="810">  │ │ │ │ │ │ └── is-buffer@1.1.5 </tspan>
<tspan x="10" y="826">  │ │ │ │ │ ├─┬ normalize-path@2.1.1 </tspan>
<tspan x="10" y="842">  │ │ │ │ │ │ └── remove-trailing-separator@1.0.1 </tspan>
<tspan x="10" y="858">  │ │ │ │ │ ├─┬ object.omit@2.0.1 </tspan>
<tspan x="10" y="874">  │ │ │ │ │ │ ├─┬ for-own@0.1.5 </tspan>
<tspan x="10" y="890">  │ │ │ │ │ │ │ └── for-in@1.0.2 </tspan>
<tspan x="10" y="906">  │ │ │ │ │ │ └── is-extendable@0.1.1 </tspan>
<tspan x="10" y="922">  │ │ │ │ │ ├─┬ parse-glob@3.0.4 </tspan>
<tspan x="10" y="938">  │ │ │ │ │ │ ├─┬ glob-base@0.3.0 </tspan>
<tspan x="10" y="954">  │ │ │ │ │ │ │ └── glob-parent@2.0.0 </tspan>
<tspan x="10" y="970">  │ │ │ │ │ │ └── is-dotfile@1.0.2 </tspan>
<tspan x="10" y="986">  │ │ │ │ │ └─┬ regex-cache@0.4.3 </tspan>
<tspan x="10" y="1002">  │ │ │ │ │   ├── is-equal-shallow@0.1.3 </tspan>
<tspan x="10" y="1018">  │ │ │ │ │   └── is-primitive@2.0.0 </tspan>
<tspan x="10" y="1034">  │ │ │ │ └─┬ resolve-dir@0.1.1 </tspan>
<tspan x="10" y="1050">  │ │ │ │   └─┬ global-modules@0.2.3 </tspan>
<tspan x="10" y="1066">  │ │ │ │     ├─┬ global-prefix@0.1.5 </tspan>
<tspan x="10" y="1082">  │ │ │ │     │ ├─┬ homedir-polyfill@1.0.1 </tspan>
<tspan x="10" y="1098">  │ │ │ │     │ │ └── parse-passwd@1.0.0 </tspan>
<tspan x="10" y="1114">  │ │ │ │     │ └── ini@1.3.4 </tspan>
<tspan x="10" y="1130">  │ │ │ │     └── is-windows@0.2.0 </tspan>
<tspan x="10" y="1146">  │ │ │ ├─┬ fined@1.0.2 </tspan>
<tspan x="10" y="1162">  │ │ │ │ ├── expand-tilde@1.2.2 </tspan>
<tspan x="10" y="1178">  │ │ │ │ ├── lodash.assignwith@4.2.0 </tspan>
<tspan x="10" y="1194">  │ │ │ │ ├── lodash.isempty@4.4.0 </tspan>
<tspan x="10" y="1210">  │ │ │ │ ├── lodash.pick@4.4.0 </tspan>
<tspan x="10" y="1226">  │ │ │ │ └─┬ parse-filepath@1.0.1 </tspan>
<tspan x="10" y="1242">  │ │ │ │   ├─┬ is-absolute@0.2.6 </tspan>
<tspan x="10" y="1258">  │ │ │ │   │ └─┬ is-relative@0.2.1 </tspan>
<tspan x="10" y="1274">  │ │ │ │   │   └─┬ is-unc-path@0.1.2 </tspan>
<tspan x="10" y="1290">  │ │ │ │   │     └── unc-path-regex@0.1.2 </tspan>
<tspan x="10" y="1306">  │ │ │ │   ├── map-cache@0.2.2 </tspan>
<tspan x="10" y="1322">  │ │ │ │   └─┬ path-root@0.1.1 </tspan>
<tspan x="10" y="1338">  │ │ │ │     └── path-root-regex@0.1.2 </tspan>
<tspan x="10" y="1354">  │ │ │ ├── flagged-respawn@0.3.2 </tspan>
<tspan x="10" y="1370">  │ │ │ ├── lodash.isplainobject@4.0.6 </tspan>
<tspan x="10" y="1386">  │ │ │ ├── lodash.isstring@4.0.1 </tspan>
<tspan x="10" y="1402">  │ │ │ └── lodash.mapvalues@4.6.0 </tspan>
<tspan x="10" y="1418">  │ │ ├─┬ orchestrator@0.3.8 </tspan>
<tspan x="10" y="1434">  │ │ │ ├── end-of-stream@0.1.5 </tspan>
<tspan x="10" y="1450">  │ │ │ ├── sequencify@0.0.7 </tspan>
<tspan x="10" y="1466">  │ │ │ └── stream-consume@0.1.0 </tspan>
<tspan x="10" y="1482">  │ │ ├── semver@4.3.6 </tspan>
<tspan x="10" y="1498">  │ │ ├─┬ tildify@1.2.0 </tspan>
<tspan x="10" y="1514">  │ │ │ └── os-homedir@1.0.2 </tspan>
<tspan x="10" y="1530">  │ │ ├─┬ v8flags@2.1.1 </tspan>
<tspan x="10" y="1546">  │ │ │ └── user-home@1.1.1 </tspan>
<tspan x="10" y="1562">  │ │ └─┬ vinyl-fs@0.3.14 </tspan>
<tspan x="10" y="1578">  │ │   ├─┬ glob-stream@3.1.18 </tspan>
<tspan x="10" y="1594">  │ │   │ ├── glob@4.5.3 </tspan>
<tspan x="10" y="1610">  │ │   │ ├─┬ glob2base@0.0.12 </tspan>
<tspan x="10" y="1626">  │ │   │ │ └── find-index@0.1.1 </tspan>
<tspan x="10" y="1642">  │ │   │ ├── minimatch@2.0.10 </tspan>
<tspan x="10" y="1658">  │ │   │ ├── ordered-read-streams@0.1.0 </tspan>
<tspan x="10" y="1674">  │ │   │ ├─┬ through2@0.6.5 </tspan>
<tspan x="10" y="1690">  │ │   │ │ └── readable-stream@1.0.34 </tspan>
<tspan x="10" y="1706">  │ │   │ └── unique-stream@1.0.0 </tspan>
<tspan x="10" y="1722">  │ │   ├─┬ glob-watcher@0.0.6 </tspan>
<tspan x="10" y="1738">  │ │   │ └─┬ gaze@0.5.2 </tspan>
<tspan x="10" y="1754">  │ │   │   └─┬ globule@0.1.0 </tspan>
<tspan x="10" y="1770">  │ │   │     ├─┬ glob@3.1.21 </tspan>
<tspan x="10" y="1786">  │ │   │     │ ├── graceful-fs@1.2.3 </tspan>
<tspan x="10" y="1802">  │ │   │     │ └── inherits@1.0.2 </tspan>
<tspan x="10" y="1818">  │ │   │     ├── lodash@1.0.2 </tspan>
<tspan x="10" y="1834">  │ │   │     └─┬ minimatch@0.2.14 </tspan>
<tspan x="10" y="1850">  │ │   │       ├── lru-cache@2.7.3 </tspan>
<tspan x="10" y="1866">  │ │   │       └── sigmund@1.0.1 </tspan>
<tspan x="10" y="1882">  │ │   ├─┬ graceful-fs@3.0.11 </tspan>
<tspan x="10" y="1898">  │ │   │ └── natives@1.1.0 </tspan>
<tspan x="10" y="1914">  │ │   ├─┬ strip-bom@1.0.0 </tspan>
<tspan x="10" y="1930">  │ │   │ ├── first-chunk-stream@1.0.0 </tspan>
<tspan x="10" y="1946">  │ │   │ └── is-utf8@0.2.1 </tspan>
<tspan x="10" y="1962">  │ │   ├─┬ through2@0.6.5 </tspan>
<tspan x="10" y="1978">  │ │   │ └── readable-stream@1.0.34 </tspan>
<tspan x="10" y="1994">  │ │   └─┬ vinyl@0.4.6 </tspan>
<tspan x="10" y="2010">  │ │     └── clone@0.2.0 </tspan>
<tspan x="10" y="2026">  │ ├── is_js@0.9.0 </tspan>
<tspan x="10" y="2042">  │ ├── lodash@3.10.1 </tspan>
<tspan x="10" y="2058">  │ ├── lodash-deep@1.6.0 </tspan>
<tspan x="10" y="2074">  │ ├─┬ mkdirp@0.5.1 </tspan>
<tspan x="10" y="2090">  │ │ └── minimist@0.0.8 </tspan>
<tspan x="10" y="2106">  │ ├── moment@2.17.1 </tspan>
<tspan x="10" y="2122">  │ ├── path-exists@3.0.0 </tspan>
<tspan x="10" y="2138">  │ ├── pretty-hrtime@1.0.3 </tspan>
<tspan x="10" y="2154">  │ ├─┬ purdy@2.2.0 </tspan>
<tspan x="10" y="2170">  │ │ ├─┬ chalk@0.4.0 </tspan>
<tspan x="10" y="2186">  │ │ │ ├── ansi-styles@1.0.0 </tspan>
<tspan x="10" y="2202">  │ │ │ ├── has-color@0.1.7 </tspan>
<tspan x="10" y="2218">  │ │ │ └── strip-ansi@0.1.1 </tspan>
<tspan x="10" y="2234">  │ │ ├── hoek@2.16.3 </tspan>
<tspan x="10" y="2250">  │ │ └─┬ joi@6.10.1 </tspan>
<tspan x="10" y="2266">  │ │   ├── isemail@1.2.0 </tspan>
<tspan x="10" y="2282">  │ │   └── topo@1.1.0 </tspan>
<tspan x="10" y="2298">  │ ├── sprintf-js@1.0.3 </tspan>
<tspan x="10" y="2314">  │ ├─┬ through2@2.0.3 </tspan>
<tspan x="10" y="2330">  │ │ ├─┬ readable-stream@2.2.9 </tspan>
<tspan x="10" y="2346">  │ │ │ ├── buffer-shims@1.0.0 </tspan>
<tspan x="10" y="2362">  │ │ │ ├── core-util-is@1.0.2 </tspan>
<tspan x="10" y="2378">  │ │ │ ├── isarray@1.0.0 </tspan>
<tspan x="10" y="2394">  │ │ │ ├── process-nextick-args@1.0.7 </tspan>
<tspan x="10" y="2410">  │ │ │ ├── string_decoder@1.0.0 </tspan>
<tspan x="10" y="2426">  │ │ │ └── util-deprecate@1.0.2 </tspan>
<tspan x="10" y="2442">  │ │ └── xtend@4.0.1 </tspan>
<tspan x="10" y="2458">  │ └─┬ winston@2.3.1 </tspan>
<tspan x="10" y="2474">  │   ├── async@1.0.0 </tspan>
<tspan x="10" y="2490">  │   ├── colors@1.0.3 </tspan>
<tspan x="10" y="2506">  │   ├── cycle@1.0.3 </tspan>
<tspan x="10" y="2522">  │   ├── eyes@0.1.8 </tspan>
<tspan x="10" y="2538">  │   ├── isstream@0.1.2 </tspan>
<tspan x="10" y="2554">  │   └── stack-trace@0.0.9 </tspan>
<tspan x="10" y="2570">  ├─┬ gulp-notify@3.0.0 </tspan>
<tspan x="10" y="2586">  │ ├─┬ lodash.template@4.4.0 </tspan>
<tspan x="10" y="2602">  │ │ └── lodash.templatesettings@4.1.0 </tspan>
<tspan x="10" y="2618">  │ └─┬ node.extend@1.1.6 </tspan>
<tspan x="10" y="2634">  │   └── is@3.2.1 </tspan>
<tspan x="10" y="2650">  ├─┬ gulp-util@3.0.8 </tspan>
<tspan x="10" y="2666">  │ ├── array-differ@1.0.0 </tspan>
<tspan x="10" y="2682">  │ ├── array-uniq@1.0.3 </tspan>
<tspan x="10" y="2698">  │ ├── beeper@1.1.1 </tspan>
<tspan x="10" y="2714">  │ ├── dateformat@2.0.0 </tspan>
<tspan x="10" y="2730">  │ ├─┬ fancy-log@1.3.0 </tspan>
<tspan x="10" y="2746">  │ │ └── time-stamp@1.0.1 </tspan>
<tspan x="10" y="2762">  │ ├─┬ gulplog@1.0.0 </tspan>
<tspan x="10" y="2778">  │ │ └── glogg@1.0.0 </tspan>
<tspan x="10" y="2794">  │ ├─┬ has-gulplog@0.1.0 </tspan>
<tspan x="10" y="2810">  │ │ └── sparkles@1.0.0 </tspan>
<tspan x="10" y="2826">  │ ├── lodash._reescape@3.0.0 </tspan>
<tspan x="10" y="2842">  │ ├── lodash._reevaluate@3.0.0 </tspan>
<tspan x="10" y="2858">  │ ├── lodash._reinterpolate@3.0.0 </tspan>
<tspan x="10" y="2874">  │ ├─┬ lodash.template@3.6.2 </tspan>
<tspan x="10" y="2890">  │ │ ├── lodash._basecopy@3.0.1 </tspan>
<tspan x="10" y="2906">  │ │ ├── lodash._basetostring@3.0.1 </tspan>
<tspan x="10" y="2922">  │ │ ├── lodash._basevalues@3.0.0 </tspan>
<tspan x="10" y="2938">  │ │ ├── lodash._isiterateecall@3.0.9 </tspan>
<tspan x="10" y="2954">  │ │ ├─┬ lodash.escape@3.2.0 </tspan>
<tspan x="10" y="2970">  │ │ │ └── lodash._root@3.0.1 </tspan>
<tspan x="10" y="2986">  │ │ ├─┬ lodash.keys@3.1.2 </tspan>
<tspan x="10" y="3002">  │ │ │ ├── lodash._getnative@3.9.1 </tspan>
<tspan x="10" y="3018">  │ │ │ ├── lodash.isarguments@3.1.0 </tspan>
<tspan x="10" y="3034">  │ │ │ └── lodash.isarray@3.0.4 </tspan>
<tspan x="10" y="3050">  │ │ ├── lodash.restparam@3.6.1 </tspan>
<tspan x="10" y="3066">  │ │ └── lodash.templatesettings@3.1.1 </tspan>
<tspan x="10" y="3082">  │ ├── minimist@1.2.0 </tspan>
<tspan x="10" y="3098">  │ ├─┬ multipipe@0.1.2 </tspan>
<tspan x="10" y="3114">  │ │ └─┬ duplexer2@0.0.2 </tspan>
<tspan x="10" y="3130">  │ │   └─┬ readable-stream@1.1.14 </tspan>
<tspan x="10" y="3146">  │ │     ├── isarray@0.0.1 </tspan>
<tspan x="10" y="3162">  │ │     └── string_decoder@0.10.31 </tspan>
<tspan x="10" y="3178">  │ ├── object-assign@3.0.0 </tspan>
<tspan x="10" y="3194">  │ ├── replace-ext@0.0.1 </tspan>
<tspan x="10" y="3210">  │ └─┬ vinyl@0.5.3 </tspan>
<tspan x="10" y="3226">  │   └── clone-stats@0.0.1 </tspan>
<tspan x="10" y="3242">  ├── lodash@4.17.4 </tspan>
<tspan x="10" y="3258">  ├── map-stream@0.0.7 </tspan>
<tspan x="10" y="3274">  ├─┬ node-notifier@5.0.2 </tspan>
<tspan x="10" y="3290">  │ ├── growly@1.3.0 </tspan>
<tspan x="10" y="3306">  │ ├── semver@5.3.0 </tspan>
<tspan x="10" y="3322">  │ ├── shellwords@0.1.0 </tspan>
<tspan x="10" y="3338">  │ └─┬ which@1.2.14 </tspan>
<tspan x="10" y="3354">  │   └── isexe@2.0.0 </tspan>
<tspan x="10" y="3370">  └─┬ shelljs@0.7.6 </tspan>
<tspan x="10" y="3386">    ├─┬ glob@7.1.1 </tspan>
<tspan x="10" y="3402">    │ ├── fs.realpath@1.0.0 </tspan>
<tspan x="10" y="3418">    │ ├─┬ inflight@1.0.6 </tspan>
<tspan x="10" y="3434">    │ │ └── wrappy@1.0.2 </tspan>
<tspan x="10" y="3450">    │ ├── inherits@2.0.3 </tspan>
<tspan x="10" y="3466">    │ ├─┬ minimatch@3.0.3 </tspan>
<tspan x="10" y="3482">    │ │ └─┬ brace-expansion@1.1.7 </tspan>
<tspan x="10" y="3498">    │ │   ├── balanced-match@0.4.2 </tspan>
<tspan x="10" y="3514">    │ │   └── concat-map@0.0.1 </tspan>
<tspan x="10" y="3530">    │ ├── once@1.3.3 </tspan>
<tspan x="10" y="3546">    │ └── path-is-absolute@1.0.1 </tspan>
<tspan x="10" y="3562">    ├── interpret@1.0.3 </tspan>
<tspan x="10" y="3578">    └─┬ rechoir@0.6.2 </tspan>
<tspan x="10" y="3594">      └─┬ resolve@1.3.2 </tspan>
<tspan x="10" y="3610">        └── path-parse@1.0.5</tspan>
</text>
</svg>
